<svg xmlns="http://www.w3.org/2000/svg" xmlns:xlink="http://www.w3.org/1999/xlink" height="200" width="400"><polygon points="0,200 0,100 1,99 2,98 3,97 4,98 5,99 6,100 7,101 8,102 9,103 10,102 11,103 12,104 13,103 14,104 15,103 16,104 17,105 18,104 19,105 20,104 21,105 22,104 23,105 24,106 25,107 26,108 27,109 28,110 29,111 30,110 31,109 32,110 33,111 34,112 35,113 36,114 37,113 38,112 39,113 40,114 41,115 42,116 43,115 44,114 45,113 46,112 47,111 48,112 49,111 50,110 51,111 52,110 53,111 54,110 55,111 56,110 57,111 58,112 59,111 60,110 61,109 62,108 63,109 64,110 65,111 66,112 67,113 68,114 69,113 70,114 71,113 72,114 73,115 74,116 75,117 76,116 77,115 78,114 79,113 80,114 81,115 82,114 83,113 84,114 85,115 86,116 87,117 88,116 89,117 90,116 91,117 92,116 93,115 94,114 95,115 96,114 97,113 98,114 99,115 100,114 101,113 102,112 103,113 104,114 105,115 106,114 107,115 108,114 109,115 110,114 111,115 112,116 113,117 114,118 115,117 116,116 117,115 118,114 119,113 120,114 121,115 122,116 123,115 124,116 125,115 126,114 127,115 128,114 129,115 130,116 131,115 132,114 133,115 134,116 135,115 136,114 137,115 138,114 139,115 140,116 141,117 142,118 143,119 144,120 145,119 146,120 147,119 148,120 149,121 150,122 151,123 152,122 153,123 154,124 155,123 156,122 157,123 158,122 159,123 160,124 161,123 162,124 163,123 164,122 165,123 166,122 167,123 168,124 169,123 170,122 171,123 172,124 173,123 174,124 175,123 176,122 177,121 178,122 179,123 180,122 181,123 182,124 183,123 184,122 185,123 186,124 187,125 188,124 189,123 190,122 191,123 192,122 193,123 194,122 195,121 196,120 197,119 198,120 199,121 200,120 201,121 202,122 203,123 204,124 205,123 206,122 207,121 208,122 209,121 210,120 211,121 212,122 213,123 214,122 215,123 216,124 217,123 218,124 219,125 220,126 221,125 222,126 223,125 224,124 225,123 226,124 227,125 228,124 229,123 230,122 231,123 232,124 233,123 234,124 235,123 236,122 237,121 238,122 239,121 240,122 241,123 242,122 243,123 244,122 245,121 246,120 247,121 248,120 249,119 250,120 251,121 252,122 253,121 254,122 255,121 256,120 257,121 258,120 259,121 260,122 261,121 262,120 263,121 264,122 265,123 266,124 267,123 268,122 269,123 270,124 271,125 272,124 273,125 274,126 275,127 276,128 277,129 278,128 279,127 280,128 281,127 282,126 283,125 284,126 285,125 286,124 287,123 288,122 289,121 290,122 291,121 292,120 293,121 294,122 295,123 296,124 297,125 298,126 299,125 300,126 301,127 302,126 303,127 304,126 305,127 306,128 307,129 308,130 309,129 310,130 311,131 312,130 313,129 314,128 315,127 316,126 317,127 318,128 319,129 320,128 321,127 322,128 323,127 324,126 325,127 326,126 327,127 328,128 329,129 330,130 331,131 332,130 333,131 334,130 335,131 336,132 337,133 338,134 339,133 340,134 341,135 342,136 343,137 344,138 345,137 346,136 347,135 348,134 349,135 350,136 351,137 352,138 353,137 354,138 355,137 356,138 357,139 358,138 359,139 360,140 361,141 362,142 363,143 364,144 365,143 366,142 367,141 368,140 369,141 370,140 371,141 372,142 373,143 374,142 375,141 376,140 377,139 378,140 379,139 380,140 381,139 382,138 383,137 384,138 385,137 386,138 387,139 388,140 389,141 390,142 391,143 392,142 393,143 394,144 395,143 396,142 397,141 398,142 399,141 400,200 " style="fill:rgb(210,188,166);stroke:rgb(110,88,66)"></polygon><polygon points="0,200 0,100 1,101 2,102 3,103 4,102 5,103 6,102 7,103 8,102 9,101 10,102 11,103 12,104 13,105 14,104 15,105 16,104 17,103 18,104 19,105 20,104 21,105 22,104 23,105 24,106 25,107 26,108 27,109 28,110 29,111 30,112 31,111 32,112 33,111 34,112 35,113 36,112 37,113 38,112 39,111 40,110 41,109 42,110 43,111 44,112 45,111 46,112 47,111 48,112 49,113 50,112 51,113 52,112 53,111 54,112 55,111 56,112 57,111 58,110 59,109 60,110 61,111 62,110 63,111 64,112 65,111 66,112 67,111 68,110 69,109 70,110 71,111 72,110 73,111 74,110 75,111 76,110 77,109 78,110 79,111 80,110 81,111 82,112 83,113 84,114 85,115 86,114 87,113 88,112 89,113 90,114 91,115 92,116 93,117 94,118 95,119 96,120 97,119 98,118 99,117 100,116 101,117 102,118 103,119 104,118 105,119 106,118 107,117 108,116 109,117 110,118 111,117 112,116 113,115 114,116 115,117 116,116 117,117 118,118 119,119 120,118 121,119 122,118 123,119 124,118 125,117 126,116 127,115 128,116 129,117 130,116 131,115 132,114 133,113 134,114 135,113 136,114 137,115 138,114 139,115 140,114 141,113 142,112 143,113 144,114 145,115 146,114 147,115 148,114 149,113 150,114 151,113 152,112 153,111 154,112 155,111 156,110 157,109 158,110 159,109 160,110 161,111 162,110 163,111 164,110 165,111 166,112 167,111 168,112 169,111 170,112 171,111 172,112 173,113 174,112 175,113 176,112 177,111 178,110 179,111 180,112 181,113 182,114 183,113 184,112 185,113 186,112 187,111 188,110 189,109 190,108 191,107 192,106 193,105 194,106 195,107 196,106 197,105 198,106 199,105 200,104 201,103 202,104 203,103 204,104 205,103 206,104 207,105 208,106 209,107 210,108 211,109 212,110 213,111 214,112 215,113 216,112 217,111 218,112 219,111 220,110 221,109 222,108 223,109 224,110 225,111 226,112 227,113 228,114 229,115 230,116 231,115 232,116 233,115 234,114 235,115 236,114 237,115 238,114 239,115 240,114 241,115 242,114 243,113 244,114 245,113 246,114 247,115 248,114 249,115 250,116 251,115 252,114 253,113 254,114 255,115 256,114 257,115 258,114 259,115 260,116 261,115 262,116 263,115 264,116 265,115 266,116 267,115 268,116 269,115 270,116 271,117 272,118 273,119 274,118 275,117 276,116 277,115 278,114 279,115 280,114 281,113 282,112 283,113 284,112 285,113 286,114 287,115 288,116 289,115 290,116 291,117 292,118 293,117 294,118 295,117 296,116 297,115 298,116 299,117 300,118 301,119 302,118 303,117 304,116 305,115 306,116 307,115 308,114 309,113 310,114 311,113 312,112 313,113 314,114 315,113 316,112 317,111 318,112 319,111 320,112 321,111 322,112 323,111 324,110 325,111 326,110 327,109 328,110 329,111 330,110 331,109 332,108 333,109 334,110 335,111 336,112 337,111 338,110 339,111 340,110 341,111 342,110 343,109 344,110 345,109 346,110 347,109 348,108 349,109 350,108 351,107 352,108 353,107 354,106 355,107 356,106 357,105 358,104 359,103 360,102 361,101 362,100 363,99 364,98 365,97 366,96 367,95 368,96 369,97 370,98 371,99 372,98 373,99 374,100 375,99 376,98 377,97 378,96 379,95 380,96 381,95 382,94 383,95 384,96 385,97 386,96 387,95 388,96 389,97 390,96 391,97 392,98 393,99 394,98 395,97 396,96 397,97 398,98 399,99 400,200 " style="fill:rgb(55,248,130);stroke:rgb(0,148,30)"></polygon><polygon points="0,200 0,100 1,99 2,98 3,99 4,98 5,99 6,100 7,99 8,100 9,101 10,102 11,103 12,102 13,103 14,104 15,103 16,104 17,103 18,102 19,101 20,100 21,101 22,100 23,101 24,102 25,103 26,104 27,105 28,106 29,107 30,108 31,109 32,110 33,111 34,112 35,113 36,112 37,111 38,110 39,111 40,110 41,111 42,110 43,109 44,110 45,109 46,108 47,109 48,110 49,111 50,112 51,111 52,112 53,113 54,112 55,113 56,114 57,115 58,114 59,113 60,114 61,113 62,112 63,111 64,110 65,109 66,110 67,111 68,110 69,109 70,108 71,107 72,108 73,109 74,110 75,109 76,108 77,109 78,110 79,111 80,112 81,111 82,110 83,109 84,108 85,107 86,106 87,107 88,106 89,105 90,104 91,105 92,106 93,107 94,106 95,107 96,108 97,109 98,108 99,109 100,108 101,109 102,110 103,109 104,108 105,109 106,110 107,111 108,112 109,111 110,110 111,109 112,108 113,109 114,110 115,109 116,108 117,107 118,106 119,107 120,106 121,107 122,106 123,107 124,108 125,107 126,106 127,107 128,106 129,105 130,104 131,103 132,102 133,101 134,102 135,103 136,102 137,101 138,100 139,99 140,98 141,99 142,100 143,101 144,102 145,101 146,102 147,101 148,102 149,103 150,102 151,103 152,102 153,103 154,104 155,103 156,104 157,105 158,104 159,103 160,104 161,103 162,102 163,103 164,104 165,103 166,102 167,101 168,100 169,101 170,100 171,101 172,102 173,103 174,102 175,101 176,102 177,103 178,102 179,103 180,102 181,103 182,104 183,103 184,104 185,103 186,104 187,103 188,104 189,103 190,102 191,101 192,100 193,99 194,100 195,99 196,100 197,101 198,102 199,101 200,100 201,101 202,100 203,99 204,100 205,101 206,102 207,101 208,102 209,103 210,102 211,103 212,102 213,103 214,102 215,103 216,104 217,103 218,102 219,101 220,102 221,101 222,102 223,101 224,100 225,101 226,102 227,103 228,102 229,103 230,104 231,105 232,104 233,103 234,104 235,105 236,104 237,105 238,104 239,103 240,104 241,103 242,102 243,103 244,104 245,103 246,104 247,103 248,104 249,103 250,102 251,103 252,104 253,105 254,104 255,105 256,106 257,105 258,104 259,105 260,106 261,107 262,106 263,107 264,108 265,107 266,108 267,107 268,108 269,109 270,108 271,109 272,108 273,109 274,110 275,111 276,112 277,111 278,110 279,111 280,112 281,111 282,110 283,111 284,110 285,109 286,108 287,109 288,108 289,107 290,108 291,109 292,110 293,109 294,110 295,111 296,110 297,111 298,110 299,111 300,110 301,111 302,110 303,109 304,108 305,109 306,110 307,111 308,112 309,113 310,112 311,113 312,114 313,115 314,116 315,115 316,116 317,115 318,116 319,117 320,116 321,115 322,116 323,117 324,116 325,115 326,116 327,117 328,118 329,117 330,118 331,119 332,120 333,121 334,120 335,119 336,120 337,119 338,120 339,121 340,122 341,121 342,120 343,121 344,122 345,121 346,120 347,121 348,120 349,121 350,122 351,123 352,124 353,123 354,122 355,123 356,124 357,125 358,124 359,125 360,124 361,123 362,124 363,123 364,122 365,123 366,122 367,121 368,120 369,119 370,118 371,119 372,118 373,117 374,118 375,119 376,120 377,121 378,122 379,121 380,122 381,123 382,122 383,123 384,124 385,125 386,124 387,123 388,122 389,121 390,120 391,121 392,120 393,121 394,120 395,119 396,120 397,121 398,122 399,121 400,200 " style="fill:rgb(176,190,231);stroke:rgb(76,90,131)"></polygon><polygon points="0,200 0,100 1,101 2,102 3,101 4,102 5,103 6,102 7,101 8,102 9,103 10,102 11,103 12,104 13,103 14,104 15,103 16,104 17,105 18,106 19,105 20,106 21,107 22,106 23,107 24,106 25,105 26,104 27,105 28,104 29,105 30,104 31,105 32,104 33,105 34,104 35,103 36,102 37,101 38,100 39,99 40,98 41,99 42,100 43,101 44,102 45,103 46,102 47,103 48,102 49,103 50,102 51,101 52,102 53,101 54,100 55,99 56,100 57,99 58,100 59,101 60,102 61,103 62,102 63,103 64,102 65,103 66,104 67,103 68,104 69,103 70,102 71,103 72,104 73,105 74,106 75,105 76,106 77,107 78,108 79,109 80,110 81,111 82,112 83,111 84,110 85,109 86,110 87,111 88,112 89,113 90,112 91,111 92,110 93,111 94,110 95,111 96,110 97,109 98,108 99,107 100,108 101,107 102,108 103,107 104,106 105,107 106,106 107,107 108,106 109,107 110,108 111,107 112,108 113,107 114,106 115,105 116,104 117,105 118,106 119,107 120,106 121,105 122,106 123,105 124,106 125,105 126,104 127,103 128,102 129,103 130,104 131,103 132,104 133,103 134,102 135,101 136,100 137,99 138,100 139,99 140,98 141,99 142,98 143,99 144,100 145,101 146,102 147,101 148,100 149,101 150,100 151,101 152,102 153,103 154,104 155,105 156,104 157,103 158,102 159,101 160,100 161,99 162,98 163,99 164,98 165,97 166,96 167,97 168,98 169,99 170,100 171,101 172,102 173,103 174,102 175,103 176,104 177,105 178,106 179,105 180,106 181,107 182,108 183,109 184,110 185,109 186,110 187,109 188,108 189,109 190,110 191,109 192,108 193,109 194,110 195,109 196,110 197,111 198,110 199,111 200,110 201,109 202,108 203,109 204,108 205,107 206,106 207,105 208,106 209,107 210,108 211,109 212,110 213,109 214,110 215,111 216,110 217,111 218,112 219,111 220,112 221,111 222,112 223,113 224,112 225,113 226,114 227,115 228,114 229,113 230,112 231,113 232,112 233,113 234,112 235,113 236,112 237,111 238,112 239,111 240,110 241,111 242,112 243,113 244,112 245,111 246,110 247,111 248,112 249,111 250,110 251,111 252,110 253,109 254,110 255,111 256,110 257,109 258,108 259,109 260,108 261,107 262,106 263,107 264,108 265,109 266,110 267,109 268,110 269,109 270,110 271,109 272,110 273,109 274,110 275,111 276,110 277,111 278,112 279,113 280,112 281,113 282,112 283,113 284,112 285,113 286,112 287,111 288,112 289,113 290,112 291,111 292,112 293,113 294,114 295,115 296,116 297,117 298,116 299,115 300,114 301,115 302,116 303,117 304,116 305,115 306,114 307,113 308,112 309,111 310,110 311,111 312,112 313,113 314,114 315,115 316,116 317,115 318,114 319,113 320,114 321,115 322,114 323,113 324,114 325,115 326,114 327,115 328,116 329,117 330,116 331,117 332,116 333,117 334,118 335,119 336,120 337,121 338,120 339,119 340,120 341,119 342,120 343,119 344,120 345,119 346,118 347,117 348,118 349,119 350,120 351,119 352,120 353,119 354,120 355,119 356,120 357,119 358,120 359,121 360,120 361,121 362,122 363,123 364,124 365,123 366,124 367,123 368,124 369,123 370,122 371,123 372,122 373,123 374,122 375,121 376,122 377,123 378,122 379,121 380,122 381,121 382,120 383,121 384,122 385,121 386,122 387,123 388,122 389,123 390,122 391,123 392,122 393,121 394,120 395,121 396,122 397,121 398,120 399,121 400,200 " style="fill:rgb(56,249,97);stroke:rgb(0,149,0)"></polygon><polygon points="0,200 0,100 1,101 2,102 3,103 4,104 5,103 6,102 7,103 8,104 9,103 10,102 11,103 12,104 13,105 14,104 15,105 16,106 17,105 18,106 19,105 20,104 21,105 22,106 23,105 24,104 25,103 26,102 27,103 28,104 29,105 30,106 31,107 32,108 33,107 34,108 35,107 36,106 37,105 38,106 39,107 40,106 41,105 42,104 43,103 44,104 45,105 46,106 47,107 48,106 49,107 50,106 51,105 52,104 53,105 54,104 55,105 56,104 57,105 58,106 59,105 60,104 61,105 62,104 63,103 64,102 65,101 66,100 67,99 68,98 69,99 70,98 71,99 72,100 73,101 74,100 75,101 76,100 77,101 78,102 79,103 80,104 81,103 82,104 83,103 84,102 85,103 86,104 87,105 88,104 89,105 90,106 91,107 92,106 93,105 94,106 95,107 96,106 97,107 98,106 99,107 100,108 101,109 102,110 103,109 104,108 105,107 106,106 107,105 108,104 109,105 110,104 111,105 112,106 113,105 114,104 115,103 116,104 117,103 118,104 119,105 120,104 121,103 122,104 123,103 124,102 125,103 126,102 127,103 128,102 129,101 130,102 131,103 132,104 133,105 134,104 135,103 136,104 137,103 138,102 139,103 140,104 141,103 142,102 143,103 144,102 145,103 146,104 147,105 148,106 149,107 150,108 151,109 152,108 153,109 154,108 155,109 156,110 157,109 158,108 159,107 160,108 161,109 162,108 163,109 164,110 165,109 166,108 167,109 168,108 169,109 170,108 171,109 172,110 173,109 174,108 175,109 176,108 177,109 178,108 179,107 180,106 181,105 182,106 183,107 184,108 185,107 186,106 187,105 188,106 189,107 190,106 191,105 192,106 193,107 194,108 195,107 196,106 197,105 198,106 199,105 200,106 201,107 202,106 203,105 204,106 205,105 206,106 207,105 208,104 209,105 210,106 211,107 212,108 213,109 214,108 215,109 216,108 217,109 218,110 219,109 220,108 221,109 222,110 223,109 224,108 225,109 226,110 227,109 228,108 229,109 230,108 231,107 232,108 233,109 234,108 235,109 236,108 237,107 238,106 239,105 240,106 241,105 242,104 243,103 244,102 245,103 246,102 247,103 248,102 249,103 250,102 251,103 252,104 253,105 254,106 255,105 256,104 257,103 258,104 259,103 260,102 261,101 262,102 263,103 264,104 265,103 266,104 267,105 268,104 269,103 270,104 271,105 272,106 273,105 274,104 275,103 276,102 277,101 278,102 279,103 280,104 281,105 282,106 283,107 284,108 285,109 286,108 287,107 288,106 289,107 290,108 291,109 292,108 293,107 294,106 295,107 296,108 297,107 298,106 299,105 300,104 301,103 302,102 303,101 304,100 305,101 306,102 307,103 308,102 309,103 310,102 311,101 312,102 313,101 314,100 315,101 316,100 317,101 318,100 319,99 320,100 321,101 322,102 323,103 324,102 325,103 326,104 327,105 328,106 329,107 330,108 331,107 332,106 333,105 334,104 335,103 336,104 337,103 338,102 339,101 340,102 341,103 342,102 343,101 344,100 345,99 346,100 347,99 348,98 349,97 350,96 351,95 352,94 353,93 354,94 355,93 356,94 357,93 358,92 359,91 360,90 361,89 362,90 363,89 364,88 365,87 366,88 367,89 368,90 369,89 370,90 371,89 372,88 373,87 374,88 375,87 376,88 377,89 378,88 379,87 380,86 381,87 382,88 383,87 384,88 385,89 386,90 387,89 388,88 389,89 390,90 391,89 392,88 393,89 394,88 395,87 396,86 397,87 398,86 399,85 400,200 " style="fill:rgb(193,134,59);stroke:rgb(93,34,0)"></polygon><polygon points="0,200 0,100 1,99 2,98 3,99 4,98 5,99 6,100 7,101 8,102 9,103 10,102 11,103 12,104 13,103 14,104 15,105 16,104 17,105 18,104 19,105 20,106 21,105 22,104 23,103 24,102 25,101 26,102 27,101 28,102 29,101 30,100 31,99 32,100 33,99 34,98 35,99 36,98 37,97 38,98 39,99 40,98 41,99 42,100 43,99 44,98 45,97 46,96 47,97 48,98 49,97 50,96 51,95 52,94 53,95 54,96 55,95 56,94 57,93 58,94 59,95 60,94 61,93 62,94 63,93 64,94 65,93 66,92 67,91 68,90 69,91 70,90 71,89 72,88 73,87 74,88 75,89 76,90 77,91 78,90 79,89 80,90 81,91 82,90 83,91 84,90 85,91 86,90 87,91 88,90 89,91 90,92 91,93 92,92 93,93 94,92 95,93 96,92 97,91 98,92 99,91 100,90 101,89 102,88 103,89 104,90 105,91 106,92 107,93 108,92 109,91 110,90 111,91 112,92 113,91 114,92 115,91 116,92 117,91 118,92 119,93 120,92 121,93 122,94 123,95 124,94 125,95 126,94 127,95 128,94 129,95 130,94 131,95 132,94 133,95 134,94 135,95 136,96 137,95 138,96 139,95 140,94 141,95 142,94 143,93 144,92 145,93 146,92 147,93 148,94 149,95 150,96 151,95 152,96 153,97 154,98 155,97 156,98 157,99 158,98 159,97 160,98 161,99 162,98 163,97 164,98 165,99 166,98 167,97 168,98 169,97 170,98 171,99 172,100 173,99 174,98 175,99 176,100 177,101 178,100 179,99 180,100 181,101 182,102 183,103 184,104 185,105 186,106 187,105 188,106 189,107 190,106 191,105 192,104 193,105 194,104 195,103 196,104 197,105 198,104 199,103 200,102 201,101 202,100 203,99 204,98 205,99 206,98 207,99 208,100 209,99 210,98 211,99 212,98 213,97 214,98 215,99 216,100 217,101 218,102 219,103 220,102 221,103 222,102 223,101 224,100 225,99 226,100 227,101 228,102 229,101 230,100 231,99 232,98 233,97 234,98 235,99 236,98 237,97 238,96 239,97 240,98 241,97 242,96 243,95 244,94 245,93 246,94 247,93 248,92 249,93 250,92 251,91 252,90 253,89 254,90 255,91 256,92 257,91 258,90 259,91 260,90 261,89 262,88 263,87 264,86 265,85 266,84 267,83 268,84 269,85 270,84 271,85 272,86 273,85 274,86 275,85 276,86 277,85 278,84 279,83 280,82 281,83 282,82 283,83 284,82 285,83 286,82 287,83 288,84 289,85 290,86 291,87 292,86 293,87 294,86 295,85 296,84 297,85 298,86 299,87 300,88 301,89 302,90 303,91 304,90 305,91 306,92 307,93 308,92 309,93 310,94 311,93 312,94 313,95 314,94 315,93 316,94 317,93 318,94 319,95 320,96 321,97 322,96 323,95 324,96 325,97 326,98 327,97 328,96 329,95 330,96 331,95 332,96 333,95 334,96 335,95 336,94 337,95 338,94 339,93 340,92 341,93 342,92 343,93 344,92 345,91 346,90 347,91 348,92 349,93 350,92 351,93 352,92 353,93 354,92 355,91 356,92 357,93 358,94 359,93 360,94 361,95 362,96 363,95 364,94 365,95 366,96 367,97 368,96 369,95 370,96 371,95 372,96 373,95 374,96 375,97 376,98 377,97 378,96 379,95 380,96 381,97 382,98 383,99 384,98 385,97 386,98 387,99 388,100 389,99 390,98 391,97 392,96 393,95 394,96 395,97 396,96 397,97 398,96 399,95 400,200 " style="fill:rgb(189,11,17);stroke:rgb(89,0,0)"></polygon><polygon points="0,200 0,100 1,101 2,102 3,103 4,104 5,103 6,102 7,101 8,102 9,103 10,104 11,103 12,104 13,105 14,106 15,105 16,104 17,103 18,102 19,103 20,104 21,105 22,106 23,107 24,108 25,109 26,108 27,107 28,108 29,107 30,108 31,107 32,108 33,109 34,108 35,107 36,108 37,109 38,108 39,107 40,108 41,109 42,110 43,111 44,112 45,111 46,110 47,109 48,108 49,107 50,106 51,107 52,108 53,107 54,106 55,105 56,106 57,105 58,104 59,105 60,106 61,105 62,104 63,105 64,104 65,103 66,104 67,105 68,106 69,105 70,104 71,103 72,104 73,103 74,104 75,103 76,104 77,103 78,104 79,105 80,106 81,105 82,104 83,103 84,104 85,105 86,106 87,107 88,106 89,107 90,108 91,109 92,108 93,107 94,108 95,107 96,108 97,107 98,106 99,107 100,106 101,107 102,108 103,109 104,110 105,111 106,110 107,109 108,108 109,109 110,110 111,111 112,112 113,113 114,112 115,113 116,112 117,111 118,110 119,109 120,108 121,107 122,106 123,107 124,108 125,107 126,106 127,107 128,108 129,109 130,110 131,109 132,110 133,111 134,110 135,111 136,112 137,113 138,114 139,113 140,112 141,113 142,112 143,113 144,114 145,115 146,116 147,115 148,114 149,115 150,114 151,115 152,114 153,115 154,114 155,113 156,114 157,115 158,116 159,117 160,116 161,115 162,114 163,113 164,112 165,111 166,110 167,109 168,108 169,109 170,108 171,107 172,108 173,109 174,110 175,111 176,110 177,109 178,108 179,109 180,110 181,111 182,110 183,111 184,110 185,109 186,110 187,109 188,108 189,109 190,110 191,111 192,112 193,111 194,110 195,109 196,110 197,111 198,112 199,113 200,112 201,111 202,112 203,113 204,112 205,111 206,112 207,113 208,112 209,111 210,110 211,109 212,108 213,107 214,106 215,107 216,106 217,107 218,106 219,105 220,104 221,103 222,104 223,105 224,106 225,107 226,106 227,107 228,106 229,107 230,108 231,109 232,108 233,109 234,110 235,111 236,110 237,109 238,108 239,109 240,110 241,109 242,110 243,111 244,112 245,111 246,110 247,111 248,112 249,113 250,112 251,113 252,112 253,113 254,112 255,113 256,112 257,111 258,110 259,111 260,112 261,111 262,110 263,109 264,110 265,109 266,110 267,109 268,110 269,111 270,110 271,111 272,110 273,111 274,112 275,111 276,110 277,109 278,110 279,111 280,110 281,111 282,112 283,113 284,114 285,115 286,116 287,117 288,116 289,117 290,116 291,115 292,114 293,113 294,114 295,115 296,116 297,115 298,116 299,117 300,116 301,115 302,114 303,115 304,114 305,115 306,114 307,113 308,114 309,115 310,114 311,113 312,114 313,115 314,116 315,115 316,116 317,115 318,116 319,117 320,118 321,117 322,118 323,119 324,118 325,117 326,118 327,119 328,118 329,119 330,120 331,121 332,120 333,119 334,118 335,117 336,118 337,119 338,120 339,121 340,120 341,121 342,122 343,123 344,122 345,123 346,124 347,125 348,124 349,125 350,126 351,127 352,126 353,125 354,126 355,127 356,128 357,127 358,126 359,125 360,126 361,127 362,128 363,127 364,128 365,129 366,128 367,129 368,130 369,129 370,130 371,131 372,132 373,131 374,130 375,129 376,130 377,129 378,130 379,129 380,130 381,131 382,132 383,131 384,130 385,129 386,130 387,129 388,130 389,131 390,132 391,131 392,130 393,131 394,132 395,131 396,132 397,133 398,132 399,131 400,200 " style="fill:rgb(220,130,73);stroke:rgb(120,30,0)"></polygon><polygon points="0,200 0,100 1,101 2,102 3,101 4,102 5,101 6,100 7,101 8,102 9,103 10,102 11,101 12,100 13,101 14,100 15,99 16,98 17,99 18,98 19,99 20,100 21,99 22,98 23,99 24,98 25,97 26,98 27,97 28,98 29,97 30,98 31,97 32,96 33,95 34,96 35,95 36,96 37,97 38,96 39,97 40,96 41,95 42,94 43,93 44,94 45,93 46,92 47,91 48,90 49,89 50,88 51,87 52,86 53,85 54,84 55,85 56,86 57,87 58,88 59,87 60,88 61,87 62,86 63,85 64,84 65,85 66,84 67,83 68,84 69,85 70,86 71,87 72,88 73,87 74,88 75,89 76,88 77,87 78,88 79,89 80,88 81,87 82,86 83,85 84,84 85,85 86,84 87,83 88,84 89,85 90,84 91,85 92,84 93,85 94,86 95,87 96,86 97,87 98,88 99,87 100,88 101,87 102,88 103,89 104,88 105,87 106,86 107,85 108,84 109,85 110,84 111,83 112,84 113,85 114,86 115,87 116,88 117,87 118,86 119,87 120,86 121,85 122,86 123,87 124,88 125,87 126,86 127,87 128,88 129,87 130,86 131,87 132,88 133,87 134,86 135,85 136,84 137,85 138,84 139,83 140,84 141,85 142,86 143,85 144,84 145,83 146,84 147,83 148,82 149,81 150,80 151,79 152,80 153,81 154,80 155,81 156,82 157,81 158,82 159,83 160,82 161,81 162,82 163,81 164,80 165,79 166,80 167,79 168,80 169,81 170,82 171,83 172,82 173,81 174,80 175,81 176,80 177,79 178,80 179,79 180,78 181,77 182,76 183,75 184,76 185,75 186,76 187,75 188,74 189,75 190,74 191,73 192,72 193,73 194,74 195,75 196,76 197,77 198,78 199,77 200,76 201,75 202,74 203,75 204,76 205,77 206,76 207,77 208,76 209,77 210,76 211,77 212,78 213,77 214,76 215,77 216,76 217,77 218,76 219,75 220,74 221,75 222,76 223,77 224,76 225,75 226,76 227,75 228,74 229,75 230,74 231,73 232,72 233,73 234,74 235,75 236,74 237,75 238,74 239,75 240,76 241,77 242,76 243,75 244,76 245,75 246,74 247,75 248,74 249,73 250,74 251,75 252,74 253,75 254,76 255,77 256,76 257,75 258,76 259,75 260,76 261,77 262,76 263,77 264,78 265,77 266,76 267,75 268,74 269,73 270,72 271,71 272,70 273,71 274,72 275,71 276,70 277,71 278,72 279,73 280,72 281,73 282,72 283,71 284,70 285,69 286,68 287,69 288,70 289,69 290,70 291,69 292,70 293,71 294,70 295,69 296,70 297,69 298,70 299,69 300,68 301,69 302,68 303,67 304,68 305,67 306,66 307,67 308,68 309,69 310,70 311,69 312,70 313,69 314,70 315,69 316,68 317,67 318,68 319,69 320,70 321,69 322,68 323,67 324,68 325,69 326,68 327,67 328,66 329,65 330,64 331,63 332,62 333,63 334,64 335,65 336,64 337,63 338,64 339,65 340,66 341,67 342,66 343,65 344,66 345,65 346,66 347,67 348,66 349,67 350,66 351,65 352,66 353,65 354,66 355,65 356,66 357,65 358,66 359,65 360,66 361,67 362,68 363,67 364,66 365,65 366,64 367,63 368,62 369,61 370,62 371,61 372,60 373,59 374,60 375,61 376,62 377,63 378,64 379,65 380,64 381,63 382,64 383,63 384,64 385,65 386,66 387,67 388,68 389,69 390,68 391,69 392,70 393,69 394,70 395,69 396,68 397,67 398,68 399,69 400,200 " style="fill:rgb(48,217,27);stroke:rgb(0,117,0)"></polygon><polygon points="0,200 0,100 1,101 2,100 3,101 4,100 5,101 6,102 7,103 8,102 9,101 10,100 11,99 12,100 13,101 14,102 15,103 16,102 17,101 18,102 19,101 20,102 21,103 22,102 23,101 24,102 25,101 26,102 27,101 28,100 29,99 30,98 31,97 32,98 33,99 34,100 35,99 36,98 37,99 38,100 39,101 40,102 41,103 42,104 43,105 44,104 45,103 46,104 47,103 48,104 49,105 50,104 51,103 52,104 53,105 54,104 55,105 56,104 57,103 58,102 59,101 60,102 61,101 62,102 63,103 64,102 65,101 66,100 67,101 68,102 69,101 70,100 71,99 72,100 73,101 74,102 75,101 76,100 77,101 78,100 79,101 80,100 81,99 82,98 83,99 84,98 85,99 86,98 87,97 88,96 89,97 90,96 91,95 92,94 93,95 94,94 95,95 96,96 97,95 98,94 99,93 100,94 101,95 102,94 103,95 104,96 105,97 106,98 107,97 108,98 109,99 110,98 111,97 112,96 113,97 114,98 115,97 116,96 117,95 118,94 119,95 120,94 121,95 122,96 123,95 124,96 125,97 126,98 127,99 128,98 129,99 130,100 131,101 132,102 133,101 134,100 135,99 136,100 137,99 138,98 139,99 140,98 141,97 142,98 143,97 144,96 145,97 146,96 147,97 148,98 149,97 150,98 151,97 152,98 153,97 154,96 155,95 156,96 157,97 158,96 159,97 160,98 161,97 162,98 163,99 164,98 165,99 166,100 167,101 168,102 169,101 170,100 171,99 172,98 173,97 174,98 175,99 176,98 177,99 178,98 179,97 180,98 181,97 182,96 183,97 184,96 185,97 186,96 187,97 188,98 189,97 190,96 191,97 192,96 193,95 194,94 195,95 196,94 197,95 198,96 199,97 200,96 201,97 202,98 203,99 204,98 205,99 206,100 207,101 208,100 209,101 210,102 211,101 212,102 213,101 214,102 215,101 216,102 217,103 218,104 219,103 220,104 221,103 222,102 223,101 224,102 225,103 226,104 227,103 228,104 229,105 230,104 231,105 232,104 233,103 234,102 235,101 236,102 237,101 238,100 239,101 240,102 241,103 242,104 243,105 244,104 245,103 246,102 247,101 248,102 249,101 250,102 251,103 252,104 253,105 254,104 255,103 256,102 257,101 258,102 259,101 260,100 261,101 262,100 263,101 264,100 265,99 266,98 267,99 268,98 269,97 270,98 271,97 272,96 273,95 274,96 275,95 276,96 277,95 278,94 279,95 280,94 281,93 282,92 283,91 284,90 285,89 286,88 287,87 288,86 289,85 290,86 291,87 292,86 293,87 294,86 295,87 296,88 297,89 298,90 299,89 300,90 301,91 302,90 303,89 304,90 305,89 306,88 307,87 308,86 309,85 310,84 311,85 312,84 313,83 314,84 315,83 316,82 317,81 318,80 319,81 320,82 321,83 322,84 323,85 324,86 325,87 326,88 327,87 328,88 329,89 330,90 331,91 332,92 333,91 334,92 335,93 336,92 337,91 338,90 339,91 340,92 341,91 342,90 343,91 344,90 345,91 346,92 347,91 348,90 349,91 350,90 351,91 352,90 353,91 354,92 355,93 356,94 357,95 358,96 359,97 360,96 361,97 362,98 363,99 364,98 365,99 366,100 367,99 368,98 369,99 370,98 371,99 372,100 373,101 374,100 375,99 376,100 377,101 378,100 379,101 380,102 381,103 382,102 383,101 384,102 385,101 386,100 387,99 388,100 389,101 390,102 391,101 392,102 393,103 394,102 395,101 396,100 397,99 398,98 399,97 400,200 " style="fill:rgb(151,220,159);stroke:rgb(51,120,59)"></polygon><polygon points="0,200 0,100 1,99 2,100 3,101 4,100 5,101 6,102 7,103 8,102 9,103 10,104 11,105 12,104 13,103 14,104 15,103 16,102 17,101 18,102 19,103 20,104 21,103 22,104 23,103 24,104 25,103 26,104 27,105 28,106 29,105 30,104 31,103 32,102 33,103 34,104 35,105 36,104 37,103 38,104 39,105 40,104 41,103 42,102 43,103 44,102 45,103 46,104 47,103 48,102 49,101 50,100 51,101 52,102 53,103 54,104 55,105 56,106 57,107 58,106 59,105 60,104 61,103 62,104 63,103 64,102 65,101 66,100 67,101 68,102 69,103 70,104 71,103 72,102 73,103 74,102 75,101 76,102 77,101 78,100 79,101 80,100 81,99 82,100 83,101 84,100 85,99 86,100 87,99 88,98 89,99 90,100 91,99 92,100 93,101 94,102 95,101 96,102 97,103 98,102 99,101 100,102 101,103 102,104 103,103 104,102 105,103 106,104 107,105 108,104 109,105 110,106 111,107 112,106 113,105 114,104 115,105 116,106 117,107 118,108 119,107 120,106 121,107 122,108 123,107 124,106 125,107 126,106 127,105 128,104 129,103 130,104 131,103 132,102 133,101 134,102 135,103 136,102 137,101 138,100 139,101 140,102 141,103 142,104 143,103 144,104 145,103 146,102 147,103 148,104 149,103 150,102 151,103 152,104 153,103 154,102 155,103 156,102 157,103 158,102 159,103 160,104 161,105 162,104 163,105 164,104 165,105 166,106 167,105 168,106 169,105 170,106 171,105 172,104 173,103 174,102 175,103 176,102 177,103 178,104 179,103 180,102 181,101 182,100 183,101 184,100 185,101 186,100 187,99 188,98 189,97 190,96 191,97 192,98 193,97 194,98 195,97 196,96 197,95 198,94 199,93 200,92 201,91 202,92 203,91 204,90 205,91 206,90 207,91 208,90 209,89 210,90 211,89 212,88 213,89 214,88 215,89 216,88 217,89 218,88 219,87 220,86 221,85 222,86 223,85 224,86 225,85 226,84 227,83 228,84 229,85 230,84 231,85 232,86 233,87 234,88 235,87 236,88 237,87 238,88 239,87 240,86 241,87 242,88 243,89 244,88 245,87 246,88 247,87 248,88 249,89 250,90 251,91 252,90 253,91 254,92 255,93 256,92 257,93 258,94 259,95 260,96 261,97 262,98 263,97 264,96 265,97 266,96 267,97 268,96 269,97 270,96 271,95 272,96 273,95 274,94 275,93 276,94 277,93 278,94 279,93 280,92 281,93 282,94 283,93 284,94 285,93 286,92 287,93 288,94 289,93 290,92 291,93 292,94 293,95 294,94 295,93 296,92 297,91 298,92 299,93 300,92 301,91 302,90 303,89 304,88 305,87 306,86 307,85 308,86 309,87 310,86 311,87 312,86 313,85 314,86 315,85 316,84 317,83 318,84 319,83 320,84 321,83 322,84 323,85 324,86 325,85 326,84 327,85 328,84 329,85 330,86 331,85 332,86 333,87 334,88 335,87 336,88 337,87 338,88 339,89 340,88 341,89 342,90 343,89 344,90 345,89 346,90 347,91 348,90 349,91 350,92 351,93 352,94 353,95 354,96 355,95 356,96 357,95 358,96 359,97 360,96 361,95 362,96 363,97 364,98 365,97 366,96 367,95 368,96 369,95 370,94 371,93 372,94 373,95 374,96 375,95 376,96 377,97 378,98 379,99 380,100 381,101 382,100 383,99 384,100 385,101 386,100 387,99 388,100 389,101 390,102 391,101 392,102 393,103 394,104 395,105 396,104 397,103 398,102 399,101 400,200 " style="fill:rgb(32,66,244);stroke:rgb(0,0,144)"></polygon></svg>